<svg width="35" height="45" viewBox="0 0 35 45" fill="none" xmlns="http://www.w3.org/2000/svg">
<path id="Vector" d="M16.1479 44.9695C15.8831 44.8701 15.6251 44.7359 15.3787 44.5668L2.26823 35.5649C1.07485 34.7455 0.339844 33.2313 0.339844 31.5926V13.5888C0.339844 11.95 1.07485 10.4358 2.26823 9.61644L15.3787 0.614527C16.572 -0.204842 18.042 -0.204842 19.2354 0.614527L32.3458 9.61644C33.5392 10.4358 34.2742 11.95 34.2742 13.5888V31.5926C34.2742 33.2313 33.5392 34.7455 32.3458 35.5649L19.2354 44.5668C18.9629 44.7539 18.676 44.8982 18.381 45L18.3061 33.9208L24.9289 29.4441C25.3143 29.8351 25.8065 30.0551 26.3174 30.0658C27.4876 30.0629 28.4491 28.9407 28.4491 27.5786C28.4491 26.2141 27.4847 25.0914 26.313 25.0914C25.1946 25.0914 24.2558 26.1138 24.1813 27.4129C24.11 27.4546 24.0745 27.4546 24.0032 27.4957L18.2706 31.3493V22.4787L24.9289 18.002C25.3042 18.3804 25.7853 18.5869 26.2816 18.583C27.4526 18.5815 28.4153 17.4593 28.4153 16.0958C28.4153 14.7313 27.4509 13.6086 26.2791 13.6086C25.1473 13.6086 24.202 14.6553 24.1454 15.9713C24.0741 16.013 24.0383 16.013 23.9674 16.0541L18.3061 19.8666V12.985C18.3118 12.8997 18.2995 12.8145 18.2706 12.7364C19.0093 12.3226 19.4811 11.449 19.4811 10.4944C19.4811 9.12996 18.5167 8.00726 17.3449 8.00726C16.1727 8.00726 15.2083 9.12996 15.2083 10.4944C15.2083 11.449 15.6802 12.3226 16.4188 12.7364C16.4188 12.8193 16.3834 12.9022 16.3834 12.985V19.8666L10.6512 16.011C10.5799 15.9698 10.544 15.9282 10.4731 15.9282C10.3994 14.6267 9.45944 13.6018 8.339 13.6018C7.166 13.6018 6.20038 14.7255 6.20038 16.0914C6.20038 17.4564 7.16437 18.5796 8.33615 18.5815C8.84911 18.5786 9.34333 18.3567 9.72509 17.9589L16.3479 22.4356V31.2655L10.6153 27.4114C10.544 27.3698 10.5086 27.3286 10.4373 27.3286C10.3305 26.0581 9.40241 25.0783 8.30641 25.0783C7.13137 25.0783 6.16493 26.2039 6.16493 27.5713C6.16493 28.9368 7.12811 30.0614 8.30111 30.0643C8.83241 30.074 9.34536 29.8347 9.72428 29.401L16.3113 33.837L16.1479 44.9695ZM9.19135 27.6198C9.19135 28.1654 8.80551 28.6146 8.33656 28.6146C7.86801 28.6146 7.48216 28.1654 7.48216 27.6198C7.48216 27.0737 7.86801 26.6245 8.33656 26.6245C8.80266 26.6323 9.18443 27.0761 9.19095 27.6183L9.19135 27.6198ZM25.4631 27.5771C25.4631 27.032 25.8489 26.5833 26.3174 26.5833C26.7864 26.5833 27.1722 27.032 27.1722 27.5781C27.1722 27.5825 27.1722 27.5868 27.1722 27.5912C27.1722 28.13 26.7913 28.5734 26.3289 28.5734C26.3252 28.5734 26.3211 28.5729 26.3174 28.5729C25.8509 28.5656 25.4688 28.1208 25.4631 27.5771ZM25.4631 27.5771V27.5781V27.5771ZM9.19135 16.1365C9.19054 16.6816 8.8047 17.1293 8.33656 17.1293C7.86801 17.1293 7.48216 16.6802 7.48216 16.1346C7.48216 15.589 7.8676 15.1398 8.33615 15.1398C8.34756 15.1393 8.35856 15.1388 8.36956 15.1388C8.82059 15.1388 9.19176 15.571 9.19176 16.0963C9.19176 16.1094 9.19135 16.1225 9.19095 16.1355L9.19135 16.1365ZM25.4631 16.0537C25.4631 15.5076 25.8489 15.0584 26.3174 15.0584C26.7864 15.0584 27.1722 15.5076 27.1722 16.0537C27.1722 16.5993 26.7864 17.0484 26.3174 17.0484C26.3064 17.0489 26.2954 17.0494 26.2844 17.0494C25.8334 17.0494 25.4622 16.6172 25.4622 16.0919C25.4622 16.0789 25.4626 16.0658 25.4631 16.0527V16.0537ZM17.3449 11.4936C16.876 11.4936 16.4905 11.0444 16.4905 10.4988C16.4905 9.95272 16.876 9.50354 17.3449 9.50354C17.8139 9.50354 18.1997 9.95272 18.1997 10.4988C18.1928 11.0415 17.811 11.4853 17.3449 11.4926V11.4936Z" fill="#009444"/>
</svg>
